<?xml version="1.0" encoding="UTF-8" standalone="no"?>
<svg
   width="140"
   height="140"
   viewBox="0 0 140 140"
   fill="none"
   version="1.1"
   id="svg10"
   sodipodi:docname="test.svg"
   inkscape:version="1.4 (86a8ad7, 2024-10-11)"
   xmlns:inkscape="http://www.inkscape.org/namespaces/inkscape"
   xmlns:sodipodi="http://sodipodi.sourceforge.net/DTD/sodipodi-0.dtd"
   xmlns="http://www.w3.org/2000/svg"
   xmlns:svg="http://www.w3.org/2000/svg">
  <defs
     id="defs10" />
  <sodipodi:namedview
     id="namedview10"
     pagecolor="#ffffff"
     bordercolor="#000000"
     borderopacity="0.25"
     inkscape:showpageshadow="2"
     inkscape:pageopacity="0.0"
     inkscape:pagecheckerboard="0"
     inkscape:deskcolor="#d1d1d1"
     inkscape:zoom="2.8821429"
     inkscape:cx="125.25403"
     inkscape:cy="65.055762"
     inkscape:window-width="1920"
     inkscape:window-height="1009"
     inkscape:window-x="-8"
     inkscape:window-y="-8"
     inkscape:window-maximized="1"
     inkscape:current-layer="svg10" />
  <!-- Main shape: Excel sheet AS briefcase body -->
  <rect
     x="20"
     y="45"
     width="100"
     height="75"
     rx="10"
     fill="#16A34A"
     stroke="#14532D"
     stroke-width="3"
     id="rect1" />
  <rect
     x="28"
     y="53"
     width="84"
     height="59"
     rx="6"
     fill="white"
     stroke="#14532d"
     stroke-width="2"
     id="rect2-0"
     style="fill:#ffffff;fill-opacity:1;stroke:none;stroke-opacity:1" />
  <path
     id="rect3"
     style="fill:#16a34a"
     d="m 32,53 h 76 c 2.216,0 4,1.784 4,4 V 68.993183 L 28,68.9934 V 57 c 0,-2.216 1.784,-4 4,-4 z"
     sodipodi:nodetypes="sssccss" />
  <!-- White page area -->
  <!-- Green header bar (Excel style) -->
  <!-- Big bold "X" on the green header -->
  <text
     x="36"
     y="66"
     font-family="Arial, sans-serif"
     font-size="11px"
     font-weight="900"
     fill="#ffffff"
     letter-spacing="-1"
     id="text4">JOB</text>
  <!-- Grid lines -->
  <line
     x1="52"
     y1="69"
     x2="52"
     y2="112"
     stroke="#D1D5DB"
     stroke-width="1.5"
     id="line4" />
  <line
     x1="76"
     y1="69"
     x2="76"
     y2="112"
     stroke="#D1D5DB"
     stroke-width="1.5"
     id="line5" />
  <line
     x1="100"
     y1="69"
     x2="100"
     y2="112"
     stroke="#D1D5DB"
     stroke-width="1.5"
     id="line6" />
  <line
     x1="28"
     y1="82"
     x2="112"
     y2="82"
     stroke="#D1D5DB"
     stroke-width="1.5"
     id="line7" />
  <line
     x1="28"
     y1="95"
     x2="112"
     y2="95"
     stroke="#D1D5DB"
     stroke-width="1.5"
     id="line8" />
  <!-- Briefcase handle (top center, attached to the sheet) -->
  <path
     d="M52 45V32C52 26.4772 56.4772 22 62 22H78C83.5228 22 88 26.4772 88 32V45"
     stroke="#14532D"
     stroke-width="5"
     fill="none"
     stroke-linecap="round"
     id="path8" />
  <!-- Handle grip highlight -->
  <path
     d="M52 45V32C52 26.4772 56.4772 22 62 22H78C83.5228 22 88 26.4772 88 32V45"
     stroke="#22C55E"
     stroke-width="2"
     fill="none"
     stroke-linecap="round"
     stroke-dasharray="4 2"
     id="path9"
     style="stroke-dasharray:6,2;stroke-dashoffset:0" />
  <!-- Briefcase latch/closure on the front -->
  <rect
     x="60"
     y="100"
     width="20"
     height="12"
     rx="3"
     fill="#16A34A"
     stroke="#14532D"
     stroke-width="2"
     id="rect9" />
  <circle
     cx="70"
     cy="106"
     r="3"
     fill="#14532D"
     id="circle9" />
  <!-- Subtle shadow for depth -->
  <rect
     x="24"
     y="118"
     width="92"
     height="6"
     rx="3"
     fill="black"
     opacity="0.1"
     id="rect10" />
  <rect
     x="28"
     y="53"
     width="84"
     height="59"
     rx="6"
     fill="white"
     stroke="#14532D"
     stroke-width="2"
     id="rect2"
     style="fill:none" />
</svg>
